{"title":"Think.Like.A.Man.Too.2014.720p.BRRip.H264.AAC.Eng.Esp.Fre-Subs.M","uid":10908033,"size":671269650,"categoryP":"video","categoryS":"hd___movies","magnet":"?xt=urn:btih:5ab770175d6fbb9dd5966537785763bf7b69726b&amp;dn=Think.Like.A.Man.Too.2014.720p.BRRip.H264.AAC.Eng.Esp.Fre-Subs.M&amp;tr=udp%3A%2F%2Ftracker.openbittorrent.com%3A80&amp;tr=udp%3A%2F%2Fopen.demonii.com%3A1337&amp;tr=udp%3A%2F%2Ftracker.coppersurfer.tk%3A6969&amp;tr=udp%3A%2F%2Fexodus.desync.com%3A6969","seeders":3,"leechers":0,"uploader":"Raven1969","files":-1,"time":1409249601,"description":"Think.Like.A.Man.Too.2014.720p.BRRip.H264.AAC.Eng.Esp.Fre-Subs.MP4.Raven.\n\n\n\nSpanish, French and English subs included.\n\n\n\nIMDB:\n\n &lt;a href=&quot;\nhttp://www.imdb.com/title/tt2239832&quot; rel=&quot;nofollow&quot; target=&quot;_NEW&quot;&gt;\nhttp://www.imdb.com/title/tt2239832&lt;/a&gt;\n\n\n\nIMDB Rating 5.6\n\n\nStoryline\n\nIn the highly anticipated sequel, which was inspired by Steve Harvey's best-selling book Act Like a Lady, Think Like a Man, all the couples are back for a wedding in Las Vegas. But plans for a romantic weekend go awry when their various misadventures get them into some compromising situations that threaten to derail the big event.\n\n\nVideo\n\nFormat                                   : AVC\nFormat/Info                              : Advanced Video Codec\nFormat profile                           : &lt;a class=&quot;__cf_email__&quot; href=&quot;/cdn-cgi/l/email-protection&quot; data-cfemail=&quot;cd80aca4a38d81f9e3fd&quot;&gt;[email&amp;#160;protected]&lt;/a&gt;&lt;script cf-hash='f9e31' type=&quot;text/javascript&quot;&gt;\n/* &lt;![CDATA[ */!function(){try{var t=&quot;currentScript&quot;in document?document.currentScript:function(){for(var t=document.getElementsByTagName(&quot;script&quot;),e=t.length;e--;)if(t[e].getAttribute(&quot;cf-hash&quot;))return t[e]}();if(t&amp;&amp;t.previousSibling){var e,r,n,i,c=t.previousSibling,a=c.getAttribute(&quot;data-cfemail&quot;);if(a){for(e=&quot;&quot;,r=parseInt(a.substr(0,2),16),n=2;a.length-n;n+=2)i=parseInt(a.substr(n,2),16)^r,e+=String.fromCharCode(i);e=document.createTextNode(e),c.parentNode.replaceChild(e,c)}}}catch(u){}}();/* ]]&gt; */&lt;/script&gt;\nFormat settings, CABAC                   : Yes\nFormat settings, ReFrames                : 4 frames\nCodec ID                                 : avc1\nCodec ID/Info                            : Advanced Video Coding\nDuration                                 : 1h 45mn\nBit rate                                 : 745 Kbps\nMaximum bit rate                         : 3 704 Kbps\nWidth                                    : 1 280 pixels\nHeight                                   : 536 pixels\nDisplay aspect ratio                     : 2.40:1\nFrame rate mode                          : Constant\nFrame rate                               : 29.970 fps\nColor space                              : YUV\nChroma subsampling                       : 4:2:0\nBit depth                                : 8 bits\nScan type                                : Progressive\nBits/(Pixel*Frame)                       : 0.036\nStream size                              : 564 MiB (88%)\nWriting library                          : x264 core 130\nLanguage                                 : English\n\n\nAudio\n\nID                                       \nFormat                                   : AAC\nFormat/Info                              : Advanced Audio Codec\nFormat profile                           : LC\nCodec ID                                 : 40\nDuration                                 : 1h 45mn\nBit rate mode                            : Variable\nBit rate                                 : 96.0 Kbps\nMaximum bit rate                         : 168 Kbps\nChannel(s)                               : 2 channels\nChannel positions                        : Front: L R\nSampling rate                            : 48.0 KHz\nCompression mode                         : Lossy\nStream size                              : 72.5 MiB (11%)\nLanguage                                 : English\nEncoded date                             : UTC 2014-08-28 15:37:10\nTagged date                              : UTC 2014-08-28 15:37:15\n\n\nPlease seed for as long as possible to keep the torrent alive.\n\n\n","torrent":{"xt":"urn:btih:5ab770175d6fbb9dd5966537785763bf7b69726b","amp;dn":"Think.Like.A.Man.Too.2014.720p.BRRip.H264.AAC.Eng.Esp.Fre-Subs.M","amp;tr":["udp%3A%2F%2Ftracker.openbittorrent.com%3A80","udp%3A%2F%2Fopen.demonii.com%3A1337","udp%3A%2F%2Ftracker.coppersurfer.tk%3A6969","udp%3A%2F%2Fexodus.desync.com%3A6969"],"infoHash":"5ab770175d6fbb9dd5966537785763bf7b69726b","infoHashBuffer":{"type":"Buffer","data":[90,183,112,23,93,111,187,157,213,150,101,55,120,87,99,191,123,105,114,107]},"announce":[],"urlList":[]}}